<svg width="41" height="40" viewBox="0 0 41 40" fill="none" xmlns="http://www.w3.org/2000/svg">
<path d="M20.5561 1.7189e-06C9.45106 -0.0045886 0.456543 9.18522 0.456543 20.5279C0.456543 29.4974 6.08317 37.1219 13.9191 39.922C14.9744 40.1928 14.8127 39.4262 14.8127 38.9029V35.3454C8.71911 36.0753 8.47213 31.9532 8.06349 31.2646C7.23723 29.8233 5.28386 29.456 5.86762 28.7675C7.2552 28.0376 8.66971 28.9511 10.3088 31.4253C11.4943 33.2201 13.8069 32.9171 14.9789 32.6188C15.2349 31.5401 15.7827 30.5761 16.5371 29.8279C10.2234 28.6711 7.59199 24.7326 7.59199 20.0505C7.59199 17.7783 8.32394 15.6897 9.76091 14.0051C8.84484 11.2279 9.84623 8.85013 9.98094 8.49667C12.5899 8.25798 15.3022 10.4062 15.5133 10.5761C16.9951 10.1675 18.6881 9.9518 20.5831 9.9518C22.4871 9.9518 24.1845 10.1767 25.6798 10.5899C26.1872 10.1951 28.7019 8.34978 31.1268 8.57471C31.257 8.92816 32.236 11.2509 31.3738 13.9913C32.8287 15.6805 33.5697 17.7875 33.5697 20.0643C33.5697 24.7556 30.9203 28.6986 24.5886 29.837C25.1309 30.3822 25.5616 31.0324 25.8553 31.7496C26.1491 32.4668 26.3001 33.2367 26.2995 34.0142V39.1783C26.3354 39.5915 26.2995 40 26.9731 40C34.9258 37.2596 40.6512 29.58 40.6512 20.5325C40.6512 9.18522 31.6522 1.7189e-06 20.5561 1.7189e-06V1.7189e-06Z" fill="white"/>
</svg>
